<svg width="16" height="16" viewBox="0 0 16 16" fill="none" xmlns="http://www.w3.org/2000/svg">
<path d="M15.6211 13.6851L11.9426 10.0064C12.5676 9.01134 12.9303 7.83528 12.9303 6.57315C12.9303 3.0024 10.0356 0.108116 6.46503 0.108116C2.89442 0.108116 0 3.0024 0 6.57315C0 10.144 2.89429 13.038 6.46503 13.038C7.83856 13.038 9.1108 12.6086 10.1577 11.879L13.7924 15.514C14.045 15.7662 14.3761 15.8919 14.7068 15.8919C15.0378 15.8919 15.3685 15.7662 15.6215 15.514C16.1262 15.0087 16.1262 14.1903 15.6211 13.6851ZM6.46503 10.9435C4.05162 10.9435 2.09498 8.98696 2.09498 6.57342C2.09498 4.15987 4.05162 2.20323 6.46503 2.20323C8.87858 2.20323 10.8351 4.15987 10.8351 6.57342C10.8351 8.98696 8.87858 10.9435 6.46503 10.9435Z" fill="black"/>
</svg>
