<svg width="17" height="18" viewBox="0 0 17 18" fill="none" xmlns="http://www.w3.org/2000/svg">
<path d="M16.358 10.111C16.0804 9.42596 16.0804 8.66689 16.358 8.00038L16.4506 7.77822C17.0429 6.37115 16.358 4.74192 14.9512 4.14948L14.7475 4.05691C14.0626 3.7792 13.5258 3.24229 13.2481 2.55727L13.1741 2.37213C12.5632 0.965072 10.9527 0.298569 9.52732 0.872502L9.34221 0.946558C8.65728 1.22427 7.89832 1.22427 7.21339 0.946558L7.04679 0.872502C5.65844 0.298569 4.02943 0.983586 3.43707 2.39065L3.36302 2.53876C3.08535 3.22378 2.54852 3.76068 1.8636 4.03839L1.697 4.11245C0.308642 4.7049 -0.37628 6.33413 0.216085 7.74119L0.29013 7.90781C0.567801 8.59283 0.567801 9.3519 0.29013 10.0184L0.216085 10.2221C-0.37628 11.6291 0.290131 13.2584 1.71551 13.8323L1.90062 13.9063C2.58554 14.1841 3.12237 14.721 3.40005 15.406L3.4926 15.6096C4.06646 17.0352 5.69546 17.7017 7.10233 17.1278L7.30595 17.0352C7.99087 16.7575 8.74984 16.7575 9.43476 17.0352L9.60137 17.1093C11.0082 17.7017 12.6372 17.0167 13.2296 15.6096L13.3036 15.4615C13.5813 14.7765 14.1181 14.2396 14.8031 13.9619L14.9512 13.9063C16.3765 13.3139 17.0429 11.7032 16.4506 10.2776L16.358 10.111ZM7.5466 12.6104L3.93688 9.57407L5.04756 8.25958L7.34297 10.2035L11.397 5.38991L12.7113 6.50075L7.5466 12.6104Z" fill="#D2D6E3"/>
</svg>
