<svg width="24" height="24" viewBox="0 0 24 24" fill="none" xmlns="http://www.w3.org/2000/svg">
<path d="M21.9583 3.83334L18.8367 19.7717C18.8367 19.7717 18.7025 20.5 17.7992 20.5C17.3192 20.5 17.0717 20.2717 17.0717 20.2717L10.31 14.6608L7.00167 12.9933L2.75583 11.8642C2.75583 11.8642 2 11.6458 2 11.0208C2 10.5 2.7775 10.2517 2.7775 10.2517L20.5408 3.195C20.54 3.19417 21.0833 2.99917 21.4792 3C21.7225 3 22 3.10417 22 3.41667C22 3.625 21.9583 3.83334 21.9583 3.83334Z" fill="#A4A8AD"/>
<path d="M12.8324 16.7542L9.97738 19.5658C9.97738 19.5658 9.85322 19.6617 9.68738 19.6658C9.62988 19.6675 9.56822 19.6583 9.50488 19.63L10.3082 14.6592L12.8324 16.7542Z" fill="#B3B6BA"/>
<path d="M18.5808 6.49674C18.44 6.31341 18.18 6.28007 17.9967 6.41924L7 13.0001C7 13.0001 8.755 17.9101 9.0225 18.7601C9.29083 19.6109 9.50583 19.6309 9.50583 19.6309L10.3092 14.6601L18.5025 7.08007C18.6858 6.94091 18.72 6.68007 18.5808 6.49674Z" fill="#B3B6BA"/>
</svg>
